<svg width="90" height="17" viewBox="0 0 90 17" fill="none" xmlns="http://www.w3.org/2000/svg">
<path d="M0.866563 14C0.699896 14 0.616563 13.9167 0.616563 13.75V12.13C0.616563 11.9767 0.666563 11.8767 0.766563 11.83L2.80656 10.62V9.58L0.766563 8.48C0.666563 8.42 0.616563 8.31667 0.616563 8.17V4.98C0.616563 4.90667 0.626563 4.84667 0.646563 4.8C0.673229 4.75333 0.709896 4.71333 0.756563 4.68L2.88656 3.12C2.9599 3.06667 3.0199 3.03333 3.06656 3.02C3.11323 3.00667 3.1599 3 3.20656 3H5.63656C5.80323 3 5.88656 3.08333 5.88656 3.25V4.82C5.88656 4.93333 5.87656 5.01 5.85656 5.05C5.84323 5.09 5.8099 5.12333 5.75656 5.15L3.86656 6.17V7.33L5.88656 8.33C5.9999 8.37667 6.05656 8.47667 6.05656 8.63V11.7C6.05656 11.8667 5.9999 12 5.88656 12.1L3.75656 13.87C3.6499 13.9567 3.51656 14 3.35656 14H0.866563ZM10.7231 14C10.5631 14 10.4298 13.9433 10.3231 13.83L8.32313 11.83C8.20979 11.7233 8.15313 11.59 8.15313 11.43V3.25C8.15313 3.08333 8.23646 3 8.40313 3H11.0731C11.2398 3 11.3231 3.08333 11.3231 3.25V11.03C11.3231 11.3433 11.4765 11.5 11.7831 11.5H13.1531V3.25C13.1531 3.08333 13.2365 3 13.4031 3H16.0731C16.2398 3 16.3231 3.08333 16.3231 3.25V13.75C16.3231 13.9167 16.2398 14 16.0731 14H10.7231ZM18.9109 17C18.7443 17 18.6609 16.9167 18.6609 16.75V3.25C18.6609 3.08333 18.7443 3 18.9109 3H20.9809C21.1009 3 21.2176 3.05667 21.3309 3.17L21.8309 3.67L22.3309 3.17C22.4376 3.05667 22.5709 3 22.7309 3H24.2609C24.4143 3 24.5476 3.05667 24.6609 3.17L26.6609 5.17C26.7743 5.27667 26.8309 5.41 26.8309 5.57V11.43C26.8309 11.59 26.7743 11.7233 26.6609 11.83L24.6609 13.83C24.5476 13.9433 24.4143 14 24.2609 14H22.7309C22.5709 14 22.4376 13.9433 22.3309 13.83L21.8309 13.33V16.75C21.8309 16.9167 21.7476 17 21.5809 17H18.9109ZM21.8309 11.67H23.0909C23.3109 11.67 23.4609 11.6267 23.5409 11.54C23.6209 11.4533 23.6609 11.3 23.6609 11.08V5.92C23.6609 5.7 23.6209 5.54667 23.5409 5.46C23.4609 5.37333 23.3109 5.33 23.0909 5.33H22.3909C22.1776 5.33 22.0309 5.37333 21.9509 5.46C21.8709 5.54667 21.8309 5.7 21.8309 5.92V11.67ZM33.6488 14C33.5821 14 33.5088 13.99 33.4288 13.97C33.3554 13.95 33.2854 13.9333 33.2188 13.92L31.4388 13.48L29.3988 12.8C29.1988 12.7333 29.0988 12.54 29.0988 12.22V5.57C29.0988 5.41 29.1554 5.27667 29.2688 5.17L31.2688 3.17C31.3821 3.05667 31.5154 3 31.6688 3H34.8688C35.0221 3 35.1554 3.05667 35.2688 3.17L37.2688 5.17C37.3821 5.27667 37.4388 5.41 37.4388 5.57V9.67H32.0688L31.9988 11L33.4188 11.47L35.9688 11.65C36.0821 11.67 36.1388 11.7467 36.1388 11.88V13.75C36.1388 13.9167 36.0554 14 35.8888 14H33.6488ZM33.2487 8.1H33.4388C33.7654 8.1 34.0254 7.97667 34.2188 7.73C34.4188 7.48333 34.5188 7.15 34.5188 6.73V6.53C34.5188 6.11667 34.4188 5.78667 34.2188 5.54C34.0254 5.29333 33.7654 5.17 33.4388 5.17H33.2388C32.9188 5.17 32.6621 5.29333 32.4688 5.54C32.2821 5.78667 32.1888 6.11667 32.1888 6.53V6.73C32.1888 7.15 32.2821 7.48333 32.4688 7.73C32.6621 7.97667 32.9221 8.1 33.2487 8.1ZM39.7703 14C39.6036 14 39.5203 13.9167 39.5203 13.75V3.25C39.5203 3.08333 39.6036 3 39.7703 3H41.2903C41.417 3 41.527 3.05667 41.6203 3.17L42.6003 4.3L43.6903 3.12C43.7636 3.04 43.857 3 43.9703 3H45.0503C45.217 3 45.3003 3.08333 45.3003 3.25V5.4C45.3003 5.50667 45.2936 5.58 45.2803 5.62C45.267 5.65333 45.2303 5.69 45.1703 5.73L42.6903 7.56V13.75C42.6903 13.9167 42.607 14 42.4403 14H39.7703ZM46.743 14C46.5763 14 46.493 13.9167 46.493 13.75V0.919999C46.493 0.753333 46.5763 0.669999 46.743 0.669999H53.593C53.7596 0.669999 53.843 0.753333 53.843 0.919999V3.08C53.843 3.24667 53.7596 3.33 53.593 3.33H49.823V6.67H53.093C53.2596 6.67 53.343 6.75333 53.343 6.92V9.08C53.343 9.24667 53.2596 9.33 53.093 9.33H49.823V13.75C49.823 13.9167 49.7396 14 49.573 14H46.743ZM55.6883 14C55.5216 14 55.4383 13.9167 55.4383 13.75V0.919999C55.4383 0.753333 55.5216 0.669999 55.6883 0.669999H58.5183C58.6849 0.669999 58.7683 0.753333 58.7683 0.919999V11.33H61.2883C61.4549 11.33 61.5383 11.4133 61.5383 11.58V13.75C61.5383 13.9167 61.4549 14 61.2883 14H55.6883ZM65.7036 14C65.5503 14 65.4169 13.9433 65.3036 13.83L63.3036 11.83C63.1903 11.7233 63.1336 11.59 63.1336 11.43V3.23C63.1336 3.07667 63.1903 2.94333 63.3036 2.83L65.3036 0.83C65.4169 0.723333 65.5503 0.669999 65.7036 0.669999H69.6336C69.7936 0.669999 69.9269 0.723333 70.0336 0.83L72.0336 2.83C72.1469 2.94333 72.2036 3.07667 72.2036 3.23V11.43C72.2036 11.59 72.1469 11.7233 72.0336 11.83L70.0336 13.83C69.9269 13.9433 69.7936 14 69.6336 14H65.7036ZM66.8836 11.33H68.4536C68.7336 11.33 68.8736 11.1433 68.8736 10.77V3.9C68.8736 3.52 68.7336 3.33 68.4536 3.33H66.8836C66.6103 3.33 66.4736 3.52 66.4736 3.9V10.77C66.4736 11.1433 66.6103 11.33 66.8836 11.33ZM77.1684 14C77.0084 14 76.8751 13.9433 76.7684 13.83L74.7684 11.83C74.6551 11.7233 74.5984 11.59 74.5984 11.43V0.919999C74.5984 0.753333 74.6818 0.669999 74.8484 0.669999H77.6784C77.8451 0.669999 77.9284 0.753333 77.9284 0.919999V11.32H80.1684V0.919999C80.1684 0.753333 80.2518 0.669999 80.4184 0.669999H83.2484C83.4151 0.669999 83.4984 0.753333 83.4984 0.919999V11.32H85.7284V0.919999C85.7284 0.753333 85.8118 0.669999 85.9784 0.669999H88.8184C88.9851 0.669999 89.0684 0.753333 89.0684 0.919999V11.43C89.0684 11.59 89.0118 11.7233 88.8984 11.83L86.8984 13.83C86.7851 13.9433 86.6518 14 86.4984 14H84.1484C83.9951 14 83.8618 13.9433 83.7484 13.83L82.0684 12.15H81.5984L79.9184 13.83C79.8051 13.9433 79.6718 14 79.5184 14H77.1684Z" fill="white"/>
</svg>
<svg width="90" height="17" viewBox="0 0 90 17" fill="none" xmlns="http://www.w3.org/2000/svg">
<path d="M0.866563 14C0.699896 14 0.616563 13.9167 0.616563 13.75V12.13C0.616563 11.9767 0.666563 11.8767 0.766563 11.83L2.80656 10.62V9.58L0.766563 8.48C0.666563 8.42 0.616563 8.31667 0.616563 8.17V4.98C0.616563 4.90667 0.626563 4.84667 0.646563 4.8C0.673229 4.75333 0.709896 4.71333 0.756563 4.68L2.88656 3.12C2.9599 3.06667 3.0199 3.03333 3.06656 3.02C3.11323 3.00667 3.1599 3 3.20656 3H5.63656C5.80323 3 5.88656 3.08333 5.88656 3.25V4.82C5.88656 4.93333 5.87656 5.01 5.85656 5.05C5.84323 5.09 5.8099 5.12333 5.75656 5.15L3.86656 6.17V7.33L5.88656 8.33C5.9999 8.37667 6.05656 8.47667 6.05656 8.63V11.7C6.05656 11.8667 5.9999 12 5.88656 12.1L3.75656 13.87C3.6499 13.9567 3.51656 14 3.35656 14H0.866563ZM10.7231 14C10.5631 14 10.4298 13.9433 10.3231 13.83L8.32313 11.83C8.20979 11.7233 8.15313 11.59 8.15313 11.43V3.25C8.15313 3.08333 8.23646 3 8.40313 3H11.0731C11.2398 3 11.3231 3.08333 11.3231 3.25V11.03C11.3231 11.3433 11.4765 11.5 11.7831 11.5H13.1531V3.25C13.1531 3.08333 13.2365 3 13.4031 3H16.0731C16.2398 3 16.3231 3.08333 16.3231 3.25V13.75C16.3231 13.9167 16.2398 14 16.0731 14H10.7231ZM18.9109 17C18.7443 17 18.6609 16.9167 18.6609 16.75V3.25C18.6609 3.08333 18.7443 3 18.9109 3H20.9809C21.1009 3 21.2176 3.05667 21.3309 3.17L21.8309 3.67L22.3309 3.17C22.4376 3.05667 22.5709 3 22.7309 3H24.2609C24.4143 3 24.5476 3.05667 24.6609 3.17L26.6609 5.17C26.7743 5.27667 26.8309 5.41 26.8309 5.57V11.43C26.8309 11.59 26.7743 11.7233 26.6609 11.83L24.6609 13.83C24.5476 13.9433 24.4143 14 24.2609 14H22.7309C22.5709 14 22.4376 13.9433 22.3309 13.83L21.8309 13.33V16.75C21.8309 16.9167 21.7476 17 21.5809 17H18.9109ZM21.8309 11.67H23.0909C23.3109 11.67 23.4609 11.6267 23.5409 11.54C23.6209 11.4533 23.6609 11.3 23.6609 11.08V5.92C23.6609 5.7 23.6209 5.54667 23.5409 5.46C23.4609 5.37333 23.3109 5.33 23.0909 5.33H22.3909C22.1776 5.33 22.0309 5.37333 21.9509 5.46C21.8709 5.54667 21.8309 5.7 21.8309 5.92V11.67ZM33.6488 14C33.5821 14 33.5088 13.99 33.4288 13.97C33.3554 13.95 33.2854 13.9333 33.2188 13.92L31.4388 13.48L29.3988 12.8C29.1988 12.7333 29.0988 12.54 29.0988 12.22V5.57C29.0988 5.41 29.1554 5.27667 29.2688 5.17L31.2688 3.17C31.3821 3.05667 31.5154 3 31.6688 3H34.8688C35.0221 3 35.1554 3.05667 35.2688 3.17L37.2688 5.17C37.3821 5.27667 37.4388 5.41 37.4388 5.57V9.67H32.0688L31.9988 11L33.4188 11.47L35.9688 11.65C36.0821 11.67 36.1388 11.7467 36.1388 11.88V13.75C36.1388 13.9167 36.0554 14 35.8888 14H33.6488ZM33.2487 8.1H33.4388C33.7654 8.1 34.0254 7.97667 34.2188 7.73C34.4188 7.48333 34.5188 7.15 34.5188 6.73V6.53C34.5188 6.11667 34.4188 5.78667 34.2188 5.54C34.0254 5.29333 33.7654 5.17 33.4388 5.17H33.2388C32.9188 5.17 32.6621 5.29333 32.4688 5.54C32.2821 5.78667 32.1888 6.11667 32.1888 6.53V6.73C32.1888 7.15 32.2821 7.48333 32.4688 7.73C32.6621 7.97667 32.9221 8.1 33.2487 8.1ZM39.7703 14C39.6036 14 39.5203 13.9167 39.5203 13.75V3.25C39.5203 3.08333 39.6036 3 39.7703 3H41.2903C41.417 3 41.527 3.05667 41.6203 3.17L42.6003 4.3L43.6903 3.12C43.7636 3.04 43.857 3 43.9703 3H45.0503C45.217 3 45.3003 3.08333 45.3003 3.25V5.4C45.3003 5.50667 45.2936 5.58 45.2803 5.62C45.267 5.65333 45.2303 5.69 45.1703 5.73L42.6903 7.56V13.75C42.6903 13.9167 42.607 14 42.4403 14H39.7703ZM46.743 14C46.5763 14 46.493 13.9167 46.493 13.75V0.919999C46.493 0.753333 46.5763 0.669999 46.743 0.669999H53.593C53.7596 0.669999 53.843 0.753333 53.843 0.919999V3.08C53.843 3.24667 53.7596 3.33 53.593 3.33H49.823V6.67H53.093C53.2596 6.67 53.343 6.75333 53.343 6.92V9.08C53.343 9.24667 53.2596 9.33 53.093 9.33H49.823V13.75C49.823 13.9167 49.7396 14 49.573 14H46.743ZM55.6883 14C55.5216 14 55.4383 13.9167 55.4383 13.75V0.919999C55.4383 0.753333 55.5216 0.669999 55.6883 0.669999H58.5183C58.6849 0.669999 58.7683 0.753333 58.7683 0.919999V11.33H61.2883C61.4549 11.33 61.5383 11.4133 61.5383 11.58V13.75C61.5383 13.9167 61.4549 14 61.2883 14H55.6883ZM65.7036 14C65.5503 14 65.4169 13.9433 65.3036 13.83L63.3036 11.83C63.1903 11.7233 63.1336 11.59 63.1336 11.43V3.23C63.1336 3.07667 63.1903 2.94333 63.3036 2.83L65.3036 0.83C65.4169 0.723333 65.5503 0.669999 65.7036 0.669999H69.6336C69.7936 0.669999 69.9269 0.723333 70.0336 0.83L72.0336 2.83C72.1469 2.94333 72.2036 3.07667 72.2036 3.23V11.43C72.2036 11.59 72.1469 11.7233 72.0336 11.83L70.0336 13.83C69.9269 13.9433 69.7936 14 69.6336 14H65.7036ZM66.8836 11.33H68.4536C68.7336 11.33 68.8736 11.1433 68.8736 10.77V3.9C68.8736 3.52 68.7336 3.33 68.4536 3.33H66.8836C66.6103 3.33 66.4736 3.52 66.4736 3.9V10.77C66.4736 11.1433 66.6103 11.33 66.8836 11.33ZM77.1684 14C77.0084 14 76.8751 13.9433 76.7684 13.83L74.7684 11.83C74.6551 11.7233 74.5984 11.59 74.5984 11.43V0.919999C74.5984 0.753333 74.6818 0.669999 74.8484 0.669999H77.6784C77.8451 0.669999 77.9284 0.753333 77.9284 0.919999V11.32H80.1684V0.919999C80.1684 0.753333 80.2518 0.669999 80.4184 0.669999H83.2484C83.4151 0.669999 83.4984 0.753333 83.4984 0.919999V11.32H85.7284V0.919999C85.7284 0.753333 85.8118 0.669999 85.9784 0.669999H88.8184C88.9851 0.669999 89.0684 0.753333 89.0684 0.919999V11.43C89.0684 11.59 89.0118 11.7233 88.8984 11.83L86.8984 13.83C86.7851 13.9433 86.6518 14 86.4984 14H84.1484C83.9951 14 83.8618 13.9433 83.7484 13.83L82.0684 12.15H81.5984L79.9184 13.83C79.8051 13.9433 79.6718 14 79.5184 14H77.1684Z" fill="white"/>
</svg>
